<svg xmlns="http://www.w3.org/2000/svg" viewBox="0 0 60 60" id="completed-list">
  <path fill="#5a5a63" d="M43,31.14V7a3,3,0,0,0-3-3H4A3,3,0,0,0,1,7V53a3,3,0,0,0,3,3H36.35Z"></path>
  <path fill="#fff" d="M39,32.35V9a1,1,0,0,0-1-1H6A1,1,0,0,0,5,9V51a1,1,0,0,0,1,1H32.88Z"></path>
  <path fill="#ffce5f" d="M28,4V8a1,1,0,0,1-1,1H17a1,1,0,0,1-1-1V4a1,1,0,0,1,1-1h1.54a3.993,3.993,0,0,1,6.92,0H27A1,1,0,0,1,28,4Z"></path>
  <circle cx="45" cy="45" r="14" fill="#3ecba3"></circle>
  <path fill="#373737" d="M55.918,36.18a1,1,0,0,0-.248,1.392,13,13,0,1,1-2.628-2.787,1,1,0,0,0,1.238-1.57A14.84,14.84,0,0,0,45,30c-.338,0-.668.029-1,.051V7a4,4,0,0,0-4-4H28.722A1.993,1.993,0,0,0,27,2H26A4.992,4.992,0,0,0,18,2H17a1.993,1.993,0,0,0-1.722,1H4A4,4,0,0,0,0,7V53a4,4,0,0,0,4,4H36.038A14.989,14.989,0,0,0,57.311,36.428,1,1,0,0,0,55.918,36.18ZM42,7V30.3a14.79,14.79,0,0,0-2,.573V9a2,2,0,0,0-2-2H29V5H40A2,2,0,0,1,42,7ZM17,4h1.54a1,1,0,0,0,.867-.5,2.992,2.992,0,0,1,5.186,0,1,1,0,0,0,.867.5H27V8H17Zm10,6a1.993,1.993,0,0,0,1.722-1H38V31.743A14.964,14.964,0,0,0,31.261,51H6V9h9.278A1.993,1.993,0,0,0,17,10ZM2,53V7A2,2,0,0,1,4,5H15V7H6A2,2,0,0,0,4,9V51a2,2,0,0,0,2,2H32.333a15.185,15.185,0,0,0,1.518,2H4A2,2,0,0,1,2,53Z"></path>
  <path fill="#373737" d="M50.2 38.4L41.892 49.478l-2.185-2.185a1 1 0 00-1.414 1.414l3 3A1 1 0 0042 52l.071 0a1 1 0 00.729-.4l9-12a1 1 0 10-1.6-1.2zM10 16a1 1 0 001 1H33a1 1 0 000-2H11A1 1 0 0010 16zM33 22H11a1 1 0 000 2H33a1 1 0 000-2zM33 29H11a1 1 0 000 2H33a1 1 0 000-2zM29 36H11a1 1 0 000 2H29a1 1 0 000-2zM26 43H11a1 1 0 000 2H26a1 1 0 000-2z"></path>
</svg>
